<?xml version="1.0" encoding="iso-8859-1"?>
<!-- Generator: Adobe Illustrator 16.0.0, SVG Export Plug-In . SVG Version: 6.00 Build 0)  -->
<!DOCTYPE svg PUBLIC "-//W3C//DTD SVG 1.1//EN" "http://www.w3.org/Graphics/SVG/1.1/DTD/svg11.dtd">
<svg version="1.1" id="Capa_1" xmlns="http://www.w3.org/2000/svg" xmlns:xlink="http://www.w3.org/1999/xlink" x="0px" y="0px"
	 width="465.309px" height="465.309px" viewBox="0 0 465.309 465.309" style="enable-background:new 0 0 465.309 465.309;"
	 xml:space="preserve">
<g>
	<g id="_x36_6_28_">
		<g>
			<circle cx="145.921" cy="173.778" r="52.313"/>
			<path d="M450.665,282.184c-2.035-1.561-50.166-38.424-85.633-54.78l-116.31-53.643v-65.582
				c20.711-8.244,35.372-28.438,35.372-52.09C284.095,25.111,258.983,0,228.006,0c-30.974,0-56.086,25.111-56.086,56.088
				c0,24.48,15.705,45.236,37.568,52.895v76.609c-3.219,6.014-12.329,24.5-11.958,40.195c-0.118,10.596,6.22,20.643,16.685,24.693
				l108.806,42.141c6.947,2.689,14.699,2.287,21.322-1.088c1.408-0.717,2.732-1.555,3.973-2.496l60.256,28.492v121.623
				c0,14.445,11.711,26.156,26.154,26.156s26.158-11.711,26.158-26.156V302.926C460.884,294.801,457.108,287.135,450.665,282.184z
				 M228.007,76.577c-11.313,0-20.484-9.172-20.484-20.488c0-11.314,9.171-20.486,20.484-20.486
				c11.316,0,20.486,9.172,20.486,20.486C248.493,67.405,239.323,76.577,228.007,76.577z"/>
			<path d="M383.62,324.021L58.193,238.618V31.739c0-14.848-12.033-26.885-26.884-26.885c-14.849,0-26.884,12.037-26.884,26.885
				v404.689c0,14.848,12.035,26.885,26.884,26.885c14.851,0,26.884-12.037,26.884-26.885V294.206l236.128,61.97v80.254
				c0,14.848,12.035,26.885,26.885,26.885c14.848,0,26.885-12.037,26.885-26.885v-66.144l21.881,5.742
				c14.365,3.77,29.061-4.815,32.83-19.183C406.571,342.483,397.983,327.788,383.62,324.021z"/>
		</g>
	</g>
</g>
<g>
</g>
<g>
</g>
<g>
</g>
<g>
</g>
<g>
</g>
<g>
</g>
<g>
</g>
<g>
</g>
<g>
</g>
<g>
</g>
<g>
</g>
<g>
</g>
<g>
</g>
<g>
</g>
<g>
</g>
</svg>
